# xmcd
#
# Track frame offsets:
#	150
#	95167
#	172577
#
# Disc length: 3483 seconds
#
# Revision: 0
# Processed by: cddbd v1.5.2PL0 Copyright (c) Steve Scherf et al.
# Submitted via: EasyCDDAExtractor 2011.0.0.0
#
DISCID=190d9903
DTITLE=명창 춘향가
DYEAR=1900
DGENRE=
TTITLE0=춘향과 춘향모가 이도령에게 이별말을 듣는데
TTITLE1=오리정 이별 대목
TTITLE2=신연맞이 - 춘향 이도령 그리며 우는데
EXTD=
EXTT0=
EXTT1=
EXTT2=
PLAYORDER=
